<?xml version="1.0" encoding="utf-8"?>
<!-- Generator: Adobe Illustrator 25.4.1, SVG Export Plug-In . SVG Version: 6.00 Build 0)  -->
<!DOCTYPE svg PUBLIC "-//W3C//DTD SVG 1.1//EN" "http://www.w3.org/Graphics/SVG/1.1/DTD/svg11.dtd" [
	<!ENTITY st0 "fill:#FFFFFF;stroke:#000000;stroke-miterlimit:10;">
]>
<svg version="1.1" id="Calque_1" xmlns="http://www.w3.org/2000/svg" xmlns:xlink="http://www.w3.org/1999/xlink" x="0px" y="0px"
	 viewBox="0 0 1275.6 708.7" style="enable-background:new 0 0 1275.6 708.7;" xml:space="preserve">
<path style="&st0;" d="M697,137.9h-8.5V453h8.5V137.9z M76.2,137.9h-8.5V453h8.5V137.9z M551.6,213.9h51v-51h-51V213.9z
	 M602.6,141.9v-51h-51v51H602.6z M623.6,90.9v51h51v-51H623.6z M530.6,90.9h-51v51h51V90.9z M674.3,470.1h-51v51v0.1h51l0-0.1
	L674.3,470.1z M90.4,301.8v51h51v-51H90.4z M674.6,213.9v-51h-51v51H674.6z M212.5,137.8l0.6-1.4l0.2-1.5l-0.2-1.5l-0.6-1.4
	l-0.9-1.2l-1.2-0.9l-1.4-0.6l-1.5-0.2l-1.5,0.2l-1.4,0.6l-1.2,0.9l-0.9,1.2l-0.6,1.4l-0.2,1.5l0.2,1.5l0.6,1.4l0.9,1.2l1.2,0.9
	l1.4,0.6l1.5,0.2l1.5-0.2l1.4-0.6l1.2-0.9L212.5,137.8z M100.3,101.1l-1.4,0.6l-1.2,0.9l-0.9,1.2l-0.6,1.4l-0.2,1.5l0.2,1.5l0.6,1.4
	l0.9,1.2l1.2,0.9l1.4,0.6l1.5,0.2l1.5-0.2l1.4-0.6l1.2-0.9l0.9-1.2l0.6-1.4l0.2-1.5l-0.2-1.5l-0.6-1.4l-0.9-1.2l-1.2-0.9l-1.4-0.6
	l-1.5-0.2L100.3,101.1z M120.8,122.2l0.6,1.4l0.9,1.2l1.2,0.9l1.4,0.6l1.5,0.2l1.5-0.2l1.4-0.6l1.2-0.9l0.9-1.2l0.6-1.4l0.2-1.5
	l-0.2-1.5l-0.6-1.4l-0.9-1.2l-1.2-0.9l-1.4-0.6l-1.5-0.2l-1.5,0.2l-1.4,0.6l-1.2,0.9l-0.9,1.2l-0.6,1.4l-0.2,1.5L120.8,122.2z
	 M89.3,132.1l-0.6,1.4l-0.2,1.5l0.2,1.5l0.6,1.4l0.9,1.2l1.2,0.9l1.4,0.6l1.5,0.2l1.5-0.2l1.4-0.6l1.2-0.9l0.9-1.2l0.6-1.4l0.2-1.5
	l-0.2-1.5l-0.6-1.4l-0.9-1.2L97,130l-1.4-0.6l-1.5-0.2l-1.5,0.2l-1.4,0.6l-1.2,0.9L89.3,132.1z M174,154.6l1.5,0.2l1.5-0.2l1.4-0.6
	l1.2-0.9l0.9-1.2l0.6-1.4l0.2-1.5l-0.2-1.5l-0.6-1.4l-0.9-1.2l-1.2-0.9l-1.4-0.6l-1.5-0.2l-1.5,0.2l-1.4,0.6l-1.2,0.9l-0.9,1.2
	l-0.6,1.4l-0.2,1.5l0.2,1.5l0.6,1.4l0.9,1.2l1.2,0.9L174,154.6z M184.7,185.5l0.2-1.5l-0.2-1.5l-0.6-1.4l-0.9-1.2l-1.2-0.9l-1.4-0.6
	l-1.5-0.2l-1.5,0.2l-1.4,0.6l-1.2,0.9l-0.9,1.2l-0.6,1.4l-0.2,1.5l0.2,1.5l0.6,1.4l0.9,1.2l1.2,0.9l1.4,0.6l1.5,0.2l1.5-0.2l1.4-0.6
	l1.2-0.9l0.9-1.2L184.7,185.5z M126.5,180l-1.2-0.9l-1.4-0.6l-1.5-0.2l-1.5,0.2l-1.4,0.6l-1.2,0.9l-0.9,1.2l-0.6,1.4l-0.2,1.5
	l0.2,1.5l0.6,1.4l0.9,1.2l1.2,0.9l1.4,0.6l1.5,0.2l1.5-0.2l1.4-0.6l1.2-0.9l0.9-1.2l0.6-1.4l0.2-1.5l-0.2-1.5l-0.6-1.4L126.5,180z
	 M196,159.3l-0.9,1.2l-0.6,1.4l-0.2,1.5l0.2,1.5l0.6,1.4l0.9,1.2l1.2,0.9l1.4,0.6l1.5,0.2l1.5-0.2l1.4-0.6l1.2-0.9l0.9-1.2l0.6-1.4
	l0.2-1.5l-0.2-1.5l-0.6-1.4l-0.9-1.2l-1.2-0.9l-1.4-0.6l-1.5-0.2l-1.5,0.2l-1.4,0.6L196,159.3z M154.9,187.6l-1.2-0.9l-1.4-0.6
	l-1.5-0.2l-1.5,0.2l-1.4,0.6l-1.2,0.9l-0.9,1.2l-0.6,1.4l-0.2,1.5l0.2,1.5l0.6,1.4l0.9,1.2l1.2,0.9l1.4,0.6l1.5,0.2l1.5-0.2l1.4-0.6
	l1.2-0.9l0.9-1.2l0.6-1.4l0.2-1.5l-0.2-1.5l-0.6-1.4L154.9,187.6z M149.4,140.4l1.5,0.2l1.5-0.2l1.4-0.6l1.2-0.9l0.9-1.2l0.6-1.4
	l0.2-1.5l-0.2-1.5l-0.6-1.4l-0.9-1.2l-1.2-0.9l-1.4-0.6l-1.5-0.2l-1.5,0.2L148,130l-1.2,0.9l-0.9,1.2l-0.6,1.4l-0.2,1.5l0.2,1.5
	l0.6,1.4l0.9,1.2l1.2,0.9L149.4,140.4z M153.7,158.4l-1.4-0.6l-1.5-0.2l-1.5,0.2l-1.4,0.6l-1.2,0.9l-0.9,1.2l-0.6,1.4l-0.2,1.5
	l0.2,1.5l0.6,1.4l0.9,1.2l1.2,0.9l1.4,0.6l1.5,0.2l1.5-0.2l1.4-0.6l1.2-0.9l0.9-1.2l0.6-1.4l0.2-1.5l-0.2-1.5l-0.6-1.4l-0.9-1.2
	L153.7,158.4z M146.9,102.6l-0.9,1.2l-0.6,1.4l-0.2,1.5l0.2,1.5l0.6,1.4l0.9,1.2l1.2,0.9l1.4,0.6l1.5,0.2l1.5-0.2l1.4-0.6l1.2-0.9
	l0.9-1.2l0.6-1.4l0.2-1.5l-0.2-1.5l-0.6-1.4l-0.9-1.2l-1.2-0.9l-1.4-0.6l-1.1-0.2l-0.1,0l-0.3,0l-1.5,0.2l-1.4,0.6L146.9,102.6z
	 M182.1,80.9l-1.4-0.6l-1.5-0.2l-1.5,0.2l-1.4,0.6l-1.2,0.9l-0.9,1.2l-0.6,1.4l-0.2,1.5l0.2,1.5l0.6,1.4l0.9,1.2l1.2,0.9l1.4,0.6
	l1.5,0.2l1.5-0.2l1.4-0.6l1.2-0.9l0.9-1.2l0.6-1.4l0.2-1.5l-0.2-1.5l-0.6-1.4l-0.9-1.2L182.1,80.9z M152.3,72.8l-1.5-0.2l-1.5,0.2
	l-1.4,0.6l-1.2,0.9l-0.9,1.2l-0.6,1.4l-0.2,1.5l0.2,1.5l0.6,1.4l0.9,1.2l1.2,0.9l1.4,0.6l1.5,0.2l1.5-0.2l1.4-0.6l1.2-0.9l0.9-1.2
	l0.6-1.4l0.2-1.5l-0.2-1.5l-0.6-1.4l-0.9-1.2l-1.2-0.9L152.3,72.8z M120.8,150.6l0.6,1.4l0.9,1.2l1.2,0.9l1.4,0.6l1.5,0.2l1.5-0.2
	l1.4-0.6l1.2-0.9l0.9-1.2l0.6-1.4l0.2-1.5l-0.2-1.5l-0.6-1.4l-0.9-1.2l-1.2-0.9l-1.4-0.6l-1.5-0.2l-1.5,0.2l-1.4,0.6l-1.2,0.9
	l-0.9,1.2l-0.6,1.4l-0.2,1.5L120.8,150.6z M200,112.3l1.5-0.2l1.4-0.6l1.2-0.9l0.9-1.2l0.6-1.4l0.2-1.5l-0.2-1.5l-0.6-1.4l-0.9-1.2
	l-1.2-0.9l-1.4-0.6l-1.5-0.2l-1.5,0.2l-1.4,0.6l-1.2,0.9l-0.9,1.2l-0.6,1.4l-0.2,1.5l0.2,1.5l0.6,1.4l0.9,1.2l1.2,0.9l1.4,0.6
	L200,112.3z M180.3,117.9l-0.9-1.2l-1.2-0.9l-1.4-0.6l-1.5-0.2l-1.5,0.2l-1.4,0.6l-1.2,0.9l-0.9,1.2l-0.6,1.4l-0.2,1.5l0.2,1.5
	l0.6,1.4l0.9,1.2l1.2,0.9l1.4,0.6l1.5,0.2l1.5-0.2l1.4-0.6l1.2-0.9l0.9-1.2l0.6-1.4l0.2-1.5l-0.2-1.5L180.3,117.9z M128,87.3
	l0.2-1.5l-0.2-1.5l-0.6-1.4l-0.9-1.2l-1.2-0.9l-1.4-0.6l-1.5-0.2l-1.5,0.2l-1.4,0.6l-1.2,0.9l-0.9,1.2l-0.6,1.4l-0.2,1.5l0.2,1.5
	l0.6,1.4l0.9,1.2l1.2,0.9l1.4,0.6l1.5,0.2l1.5-0.2l1.4-0.6l1.2-0.9l0.9-1.2L128,87.3z M106.7,160.5l-0.9-1.2l-1.2-0.9l-1.4-0.6
	l-1.5-0.2l-1.5,0.2l-1.4,0.6l-1.2,0.9l-0.9,1.2l-0.6,1.4l-0.2,1.5l0.2,1.5l0.6,1.4l0.9,1.2l1.2,0.9l1.4,0.6l1.5,0.2l1.5-0.2l1.4-0.6
	l1.2-0.9l0.9-1.2l0.6-1.4l0.2-1.5l-0.2-1.5L106.7,160.5z M623.3,449.1h51v-51h-51V449.1z M90.4,229.8v51h51v-51H90.4z M21.8,453
	V137.9h8.5V33.1h113.4v-8.5h182V33H439l0-8.5h182V33l113.4,0v104.9h8.5V453h-8.5v104.9H621v8.5H439l0-0.1l0-8.4H325.6v8.5h-182
	l0-0.1l0-8.4H30.3V453H21.8z"/>
<path style="&st0;" d="M1210.7,200.9v-86.7h8.5V46.7h-28.3v-8.5h-56.7v8.5h-28.3l0,67.5l8.5,0v182l-8.5,0v113.4l8.5,0v182l-8.5,0
	v67.5l28.4,0v8.5h56.7V659h28.3v-67.5h-8.5v-86.7h-19.8v2.8h-8.5v-2.8h-14.2v-8.5h14.2v-2.8h8.5v2.8h19.8v-86.7h8.5V296.1h-8.5
	v-86.7h-19.8v2.8h-8.5v-2.8h-14.2v-8.5h14.2V198h8.5v2.8H1210.7z M1154,547l-0.5,3.3l-1.3,3.1l-2,2.6l-2.6,2l-3.1,1.3l-3.3,0.4
	l-3.3-0.4l-3.1-1.3l-2.6-2l-2-2.6l-1.3-3.1l-0.4-3.3V158.6l0.4-3.3l1.3-3.1l2-2.6l2.6-2l3.1-1.3l3.3-0.4l3.3,0.4l3.1,1.3l2.6,2
	l2,2.7l1.3,3.1l0.4,3.3V547z"/>
<path style="&st0;" d="M806.5,567v8.4l56.7,0.1l-0.1-8.5H806.5z M840.4,190l-0.2-1.5l-0.6-1.4l-0.9-1.2l-1.1-0.9l-1.4-0.6l-1.5-0.2
	l-1.5,0.2l-1.4,0.6l-1.2,0.9l-0.9,1.2l-0.6,1.4l-0.2,1.5l0.2,1.5l0.6,1.4l0.9,1.2l1.1,0.9l1.4,0.6l1.5,0.2l1.5-0.2l1.4-0.6l1.2-0.9
	l0.9-1.2l0.6-1.4L840.4,190z M829.9,618.1l0.9,1.1l0,0.1l1.1,0.8l0,0.1l1.3,0.5l0,0.1l1.5,0.2l1.5-0.2l1.4-0.6l1.2-0.9l0.9-1.2
	l0.6-1.4l0.2-1.5l0-0.1l-0.1-1.4l0-0.1l-0.5-1.3l-0.9-1.2l-1.2-0.9l-1.4-0.6l-1.5-0.2l-1.5,0.2l-1.4,0.6l-1.2,0.9l-0.9,1.2l-0.6,1.4
	l-0.2,1.5l0.2,1.5L829.9,618.1z M891.5,567v48.2l-0.5,7.4l-1.4,7.3l-2.4,7l-3.3,6.7l-4.1,6.2l-4.9,5.6l-5.6,4.9l-6.2,4.1l-6.7,3.3
	l-7,2.4l-7.3,1.4l-7.4,0.5l-7.4-0.5l-7.3-1.4l-7-2.4l-6.7-3.3l-6.2-4.1l-5.6-4.9l-4.9-5.6l0-0.1l-4.1-6.1l0-0.1l-3.2-6.6l0-0.1
	l-2.3-7l0-0.1l-1.4-7.2l0-0.1l-0.4-7.3l0-0.1l0-153h8.5l0-315.1l-8.5,0l0-104.8h28.3v-8.5h56.7v8.5H883l0.1,104.9h8.5v315.1H883V567
	H891.5z"/>
<path style="&st0;" d="M988.9,192.9l-0.2,1.5l0.2,1.5l0.6,1.4l0.9,1.2l1.2,0.9l1.4,0.6l1.5,0.2l1.5-0.2l1.4-0.6l1.2-0.9l0.9-1.2
	l0.6-1.4l0.2-1.5l-0.2-1.5l-0.6-1.4l-0.9-1.2l-1.2-0.9l-1.4-0.6l-1.5-0.2l-1.5,0.2l-1.4,0.6l-1.2,0.9l-0.9,1.2L988.9,192.9z
	 M997.2,614.7l-1.4-0.6l-1.5-0.2l-1.5,0.2l-1.4,0.6l-1.2,0.9l-0.9,1.2l-0.6,1.4l-0.2,1.4l0,0.1l0.2,1.4l0,0.1l0.6,1.4l0.9,1.2
	l1.2,0.9l1.4,0.6l1.5,0.2l1.5-0.2l1.4-0.6l1.2-0.9l0.9-1.2l0-0.1l0.6-1.3l0.2-1.5l-0.2-1.5l-0.6-1.4l-0.9-1.2L997.2,614.7z
	 M937.7,619.6V466.5h8.5V151.5h-8.5V46.6h28.3l0-8.5h56.7v8.5l28.3,0v297.8l-5-1.1l-18.2-2.8l-18.3-1.6l-9.2-0.2h-0.2l-2.9,0.4
	l-2.7,1.1l-2.3,1.8l-1.8,2.3l-1.1,2.7l-0.4,2.9l0.4,2.9l1.1,2.7l1.8,2.3l2.3,1.8l2.7,1.1l2.7,0.4h0.2l8.2,0.2l16.8,1.5l16.7,2.6
	l9.2,2l0,251.9l0,0.1l-0.5,7.3l0,0.1l-1.4,7.3l-2.4,7l-3.3,6.7l-4.1,6.2l-4.9,5.6l-5.6,4.9l-6.2,4.1l-6.7,3.3l-7,2.4l-7.3,1.4
	l-7.4,0.5l-7.4-0.5l-7.3-1.4l-7-2.4l-6.7-3.3l-6.2-4.1l-5.6-4.9l-4.9-5.6l-4.1-6.2l-3.3-6.7l-2.4-7l-1.4-7.3L937.7,619.6z"/>
<path style="&st0;" d="M1173.5,967.3l-1.5,0.2l-1.4,0.6l-1.2,0.9l-0.9,1.2l-0.6,1.4l-0.2,1.5l0.2,1.5l0.6,1.4l0.9,1.2l1.2,0.9
	l1.4,0.6l1.4,0.2l1.5-0.2l1.4-0.6l1.2-0.9l0.9-1.2l0.6-1.4l0.2-1.5l-0.2-1.5l-0.6-1.4l-0.9-1.2l-1.2-0.9l-1.4-0.6L1173.5,967.3z
	 M1170.7,1393.3l-1.1,0.9l-0.9,1.2l-0.6,1.4l-0.2,1.5l0.2,1.5l0.6,1.4l0.9,1.2l1.2,0.9l1.4,0.6l1.5,0.2l1.5-0.2l1.4-0.6l1.1-0.9
	l0.9-1.2l0.6-1.4l0.2-1.5l-0.2-1.5l-0.6-1.4l-0.9-1.2l-1.2-0.9l-1.4-0.6l-1.5-0.2l-1.5,0.2L1170.7,1393.3z M1230.2,1245.1v153.1
	l-0.5,7.4l-1.4,7.3l-2.4,7l-3.3,6.7l-4.1,6.2l-4.9,5.6l-5.6,4.9l-6.2,4.1l-6.7,3.3l-7,2.4l-7.3,1.4l-7.4,0.5l-7.4-0.5l-7.3-1.4
	l-7-2.4l-6.7-3.3l-6.2-4.1l-5.6-4.9l-4.9-5.6l-4.1-6.2l-3.3-6.7l-2.4-7l-1.4-7.3l-0.5-7.4l0-252l9.2-2l16.7-2.6l16.8-1.5l8.2-0.2
	h0.2l2.7-0.4l2.7-1.1l2.3-1.8l1.8-2.3l1.1-2.7l0.4-2.9l-0.4-2.9l-1.1-2.7l-1.8-2.3l-2.3-1.8l-2.7-1.1l-2.9-0.4h-0.2l-9.2,0.2
	l-18.3,1.6l-18.2,2.8l-5,1.1V825.2h28.3v-8.5h56.7v8.5h28.3v104.9h-8.5v315.1L1230.2,1245.1z"/>
<path style="&st0;" d="M1075.7,1358.5v-8.5H1019v8.5H1075.7z M1041.9,971.5l-0.2,1.5l0.2,1.5l0.6,1.4l0.9,1.2l1.2,0.9l1.4,0.6
	l1.5,0.2l1.5-0.2l1.4-0.6l1.2-0.9l0.9-1.2l0.6-1.4l0.2-1.5l-0.2-1.5l-0.6-1.4l-0.9-1.2l-1.2-0.9l-1.4-0.6l-1.5-0.2l-1.5,0.2
	l-1.4,0.6l-1.2,0.9l-0.9,1.2L1041.9,971.5z M1048.8,1392.7l-1.5-0.2l-1.5,0.2l-1.4,0.6l-1.2,0.9l-0.9,1.2l-0.6,1.4l-0.2,1.5l0.2,1.5
	l0.6,1.4l0.9,1.2l1.2,0.9l1.4,0.6l1.5,0.2l1.5-0.2l1.4-0.6l1.2-0.9l0.9-1.2l0.6-1.4l0.2-1.5l-0.2-1.5l-0.6-1.4l-0.9-1.2l-1.2-0.9
	L1048.8,1392.7z M990.6,1398.2V1350h8.5v-104.9h-8.5V930.1h8.5V825.2h19.8v-8.5h56.7v8.5h28.3v104.9h-8.5v315.1h8.5v153.1l-0.5,7.4
	l-1.4,7.3l-2.4,7l-3.3,6.7l-4.1,6.2l-4.9,5.6l-5.6,4.9l-6.2,4.1l-6.7,3.3l-7,2.4l-7.3,1.4l-7.4,0.5l-7.4-0.5l-7.3-1.4l-7-2.4
	l-6.7-3.3l-6.2-4.1l-5.6-4.9l-4.9-5.6l-4.1-6.2l-3.3-6.7l-2.4-7l-1.4-7.3L990.6,1398.2z"/>
<path style="&st0;" d="M646.5,1127.3l0.4,2.9l1.1,2.7l1.8,2.3l2.3,1.8l2.7,1.1l2.9,0.4l2.9-0.4l2.7-1.1l2.3-1.8l1.8-2.3l1.1-2.7
	l0.4-2.9l-0.4-2.9l-1.1-2.7l-1.8-2.3l-2.3-1.8l-2.7-1.1l-2.9-0.4l-2.9,0.4l-2.7,1.1l-2.3,1.8l-1.8,2.3l-1.1,2.7L646.5,1127.3z
	 M646.5,857.5l0.4,2.9l1.1,2.7l1.8,2.3l2.3,1.8l2.7,1.1l2.9,0.4l2.9-0.4l2.7-1.1l2.3-1.8l1.8-2.3l1.1-2.7l0.4-2.9l-0.4-2.9l-1.1-2.7
	l-1.8-2.3l-2.3-1.8l-2.7-1.1l-2.9-0.4l-2.9,0.4l-2.7,1.1l-2.3,1.8l-1.8,2.3l-1.1,2.7L646.5,857.5z M609.6,1127.3V857.5l0.4-6.3
	l1.2-6.2l2-6l2.8-5.7l3.5-5.2l4.2-4.7l4.7-4.2l5.2-3.5l5.7-2.8l6-2l6.2-1.2l6.3-0.4l6.3,0.4l6.2,1.2l6,2l5.7,2.8l5.2,3.5l4.7,4.2
	l4.2,4.7l3.5,5.2l2.8,5.7l2,6l1.2,6.2l0.4,6.3v269.8l-0.4,6.3l-1.2,6.2l-2,6l-2.8,5.7l-3.5,5.2l-4.2,4.7l-4.7,4.2l-5.2,3.5l-5.7,2.8
	l-6,2l-6.2,1.2l-6.3,0.4l-6.3-0.4l-6.2-1.2l-6-2l-5.7-2.8l-5.2-3.5l-4.7-4.2l-4.2-4.7l-3.5-5.2l-2.8-5.7l-2-6l-1.2-6.2L609.6,1127.3
	z"/>
<path style="&st0;" d="M932.6,1414.8l2.7-1.1l2.3-1.8l1.8-2.3l1.1-2.7l0.4-2.9l-0.4-2.9l-1.1-2.7l-1.8-2.3l-2.3-1.8l-2.7-1.1
	l-2.9-0.4l-2.9,0.4l-2.7,1.1l-2.3,1.8l-1.8,2.3l-1.1,2.7l-0.4,2.9l0.4,2.9l1.1,2.7l1.8,2.3l2.3,1.8l2.7,1.1l2.9,0.4L932.6,1414.8z
	 M667.9,1411.9l1.8-2.3l1.1-2.7l0.4-2.9l-0.4-2.9l-1.1-2.7l-1.8-2.3l-2.3-1.8l-2.7-1.1l-2.9-0.4l-2.9,0.4l-2.7,1.1l-2.3,1.8
	l-1.8,2.3l-1.1,2.7l-0.4,2.9l0.4,2.9l1.1,2.7l1.8,2.3l2.3,1.8l2.7,1.1l2.9,0.4l2.9-0.4l2.7-1.1L667.9,1411.9z M929.6,1452H659.9
	l-6.3-0.4l-6.2-1.2l-6-2l-5.7-2.8l-5.2-3.5l-4.7-4.2l-4.2-4.7l-3.5-5.2l-2.8-5.7l-2-6l-1.2-6.2l-0.4-6.3l0.4-6.3l1.2-6.2l2-6
	l2.8-5.7l3.5-5.2l4.2-4.7l4.7-4.2l5.2-3.5l5.7-2.8l6-2l6.2-1.2l6.3-0.4h269.8l6.3,0.4l6.2,1.2l6,2l5.7,2.8l5.2,3.5l4.7,4.2l4.2,4.7
	l3.5,5.2l2.8,5.7l2,6l1.2,6.2l0.4,6.3l-0.4,6.3l-1.2,6.2l-2,6l-2.8,5.7l-3.5,5.2l-4.2,4.7l-4.7,4.2l-5.2,3.5l-5.7,2.8l-6,2l-6.2,1.2
	L929.6,1452z"/>
<path style="&st0;" d="M573.1,983.8v-86.7l-8.5,0v-67.5l-104.9,0v-8.5h-315l0,8.5H39.7v67.5l-8.5,0l-0.1,86.8h8.5v8.5h-8.5v86.7h8.5
	v113.4h-8.5v86.7h8.5v8.4l-8.5,0.1v86.7h8.5v67.5h104.9v8.5h315.1l0-0.1v-8.4h104.9l0-0.1v-67.4h8.5l0-0.1l0-86.7l-11.3-0.1v-8.4
	h11.3l0-78.3l-325.2,0.1l-5.7-0.8l-5.3-2.2l-4.6-3.5l-3.5-4.6l-2.2-5.3l-0.8-5.7l0-86.2l0.7-5.7l2.2-5.4l3.5-4.5l4.6-3.5l5.3-2.2
	l5.7-0.8h325.1v-78.2l-8.5,0v-8.5L573.1,983.8z M448.3,1310.1l2.9,0.4l2.7,1.1l2.3,1.8l1.8,2.3l1.1,2.7l0.4,2.9l-0.4,2.9l-1.1,2.7
	l0,0.1l-1.8,2.3l0,0.1l-2.3,1.8l-2.7,1.1l-2.9,0.4H215.9l-2.9-0.4l-2.7-1.1l-2.3-1.8l-1.8-2.3l-1.1-2.7l-0.4-2.9l0-0.1l0.3-2.9
	l0-0.1l1.1-2.7l1.8-2.3l2.3-1.8l2.7-1.1l2.9-0.4H448.3z M459.3,953.1l-1.1,2.7l-1.8,2.3l-2.3,1.8l-2.7,1.1l-3,0.4H215.9l-2.9-0.4
	l-2.7-1.1l-2.3-1.8l-1.8-2.3L205,953l-0.4-2.9l0.4-3l1.1-2.7l1.8-2.3l2.3-1.8l2.7-1.1l2.9-0.4h232.4l2.9,0.4l2.7,1.1l2.3,1.8
	l1.8,2.3l1.1,2.7l0.4,2.9L459.3,953.1z"/>
<path style="&st0;" d="M544.9,1178.8l-0.2-1.8l-0.7-1.7l-1.1-1.5l-1.5-1.1l-1.7-0.7l-1.8-0.2l-1.8,0.2l-1.7,0.7l-1.5,1.1l-1.1,1.5
	l-0.7,1.7l-0.2,1.8l0.2,1.8l0.7,1.7l1.1,1.5l1.5,1.1l1.7,0.7l1.8,0.2l1.8-0.2l1.7-0.7l1.5-1.1l1.1-1.5l0.7-1.7L544.9,1178.8z
	 M531.6,1096.2l1.1,1.5l1.5,1.1l1.7,0.7l1.8,0.2l1.8-0.2l1.7-0.7l1.5-1.1l1.1-1.5l0.7-1.7l0.2-1.8l-0.2-1.8l-0.7-1.7l-1.1-1.5
	l-1.5-1.1l-1.7-0.7l-1.8-0.2l-1.8,0.2l-1.7,0.7l-1.5,1.1l-1.1,1.5l-0.7,1.7l-0.2,1.8l0.2,1.8L531.6,1096.2z M261.5,1085.9l-1.8-0.2
	l-1.8,0.2l-1.7,0.7l-1.5,1.1l-1.1,1.5l-0.7,1.7l-0.2,1.8l0.2,1.8l0.7,1.7l1.1,1.5l1.5,1.1l1.7,0.7l1.8,0.2l1.8-0.2l1.7-0.7l1.5-1.1
	l1.1-1.5l0.7-1.7l0.2-1.8l-0.2-1.8l-0.7-1.7l-1.1-1.5l-1.5-1.1L261.5,1085.9z M261.5,1172l-1.8-0.2l-1.8,0.2l-1.7,0.7l-1.5,1.1
	l-1.1,1.5l-0.7,1.7l-0.2,1.8l0.2,1.8l0.7,1.7l1.1,1.5l1.5,1.1l1.7,0.7l1.8,0.2l1.8-0.2l1.7-0.7l1.5-1.1l1.1-1.5l0.7-1.7l0.2-1.8
	l-0.2-1.8l-0.7-1.7l-1.1-1.5l-1.5-1.1L261.5,1172z M559.3,1072v127.6H259.7l-5.4-0.7l-5-2.1l-4.3-3.3l-3.3-4.3l-2.1-5l-0.7-5.4V1167
	l8.1-1.1l7.5-3.1l6.5-5l5-6.5l3.1-7.5l1.1-8.1l-1.1-8.1l-3.1-7.5l-5-6.5l-6.5-5l-7.5-3.1l-8.1-1.1v-11.9l0.7-5.4l2.1-5l3.3-4.3
	l4.3-3.3l5-2.1l5.4-0.7H559.3z"/>
<path style="&st0;" d="M735.4,611.8h8.5l0-28.4H622l0,8.5h-86.7l0,19.8l2.8,0v8.5h-2.8v14.2h-8.5l0-14.2h-2.8v-8.5h2.8l0-19.9h-78.2
	v25.5H318.1v-25.5h-78.2l0,19.9h2.8v8.5h-2.8l0,14.2h-8.5v-14.2h-2.8v-8.5l2.8,0v-19.8h-86.7l0-8.5H22.8v28.3h8.5v56.7h-8.5v28.3
	h121.9v-8.5h182v8.5H440v-8.5h182v8.5h121.9v-28.3h-8.5V611.8z M77.2,668.4h-8.5v-56.6h8.5V668.4z M347.1,632.6l-0.7,1.7l-1.1,1.5
	l-1.5,1.1l-1.7,0.7l-1.8,0.2l-1.8-0.2l-1.7-0.7l-1.5-1.1l-1.1-1.5l-0.7-1.7l-0.2-1.8l0.2-1.8l0.7-1.7l1.1-1.5l1.5-1.1l1.7-0.7
	l1.8-0.2l1.8,0.2l1.7,0.7l1.5,1.1l1.1,1.5l0.7,1.7l0.2,1.8L347.1,632.6z M433.2,632.6l-0.7,1.7l-1.1,1.5l-1.5,1.1l-1.7,0.7l-1.8,0.2
	l-1.8-0.2l-1.7-0.7l-1.5-1.1l-1.1-1.5l-0.7-1.7l-0.2-1.8l0.2-1.8l0.7-1.7l1.1-1.5l1.5-1.1l1.7-0.7l1.8-0.2l1.8,0.2l1.7,0.7l1.5,1.1
	l1.1,1.5l0.7,1.7l0.2,1.8L433.2,632.6z M498.1,642.3l-0.9,2.1l-1.4,1.8l-1.8,1.4l-2.1,0.8l-2.2,0.3l-2.2-0.3l-2.1-0.8l-1.8-1.4
	l-1.4-1.8l-0.8-2.1l-0.3-2.2l0.3-2.2l0.8-2.1l1.4-1.8l1.8-1.4l2.1-0.8l2.2-0.3l2.2,0.3l2.1,0.8l1.8,1.4l1.4,1.8l0.8,2l0.3,2.2
	L498.1,642.3z M600.5,665.6h-51v-51h51V665.6z M672.4,665.6h-51v-51h51V665.6z M698,668.4h-8.5v-56.6h8.5V668.4z"/>
<path style="&st0;" d="M955.2,851.2L954,845l-2-6l-2.8-5.7l-3.5-5.2l-4.2-4.7l-4.7-4.2l-5.2-3.5l-5.7-2.8l-1.4-0.5
	c-4.5-1.2-24.1-4.4-40.7,13.1c-6.9,7.3-9.9,14.1-12.3,19.2c-6.8,14.3-8.9,33.5-9.7,41.5c-2.9,30.9-1.8,52.5-2.5,61.8v357.4
	l96.4,29.3V857.5L955.2,851.2z M918.8,1173.9l-0.4,2.9l-1.1,2.7l-1.8,2.3l-2.3,1.8l-2.7,1.1l-2.9,0.4h-14.2l-2.9-0.4l-2.7-1.1
	l-2.3-1.8l-1.8-2.3l-1.1-2.7l-0.4-2.9l0.4-2.9l1.1-2.7l1.8-2.3l2.3-1.8l2.7-1.1l2.9-0.4h2.8V857.5l0.4-2.9l1.1-2.7l1.8-2.3l2.3-1.8
	l2.7-1.1l2.9-0.4l2.9,0.4l2.7,1.1l2.3,1.8l1.8,2.3l1.1,2.7l0.4,2.9V1173.9z"/>
<path style="&st0;" d="M832.5,851.2l-1.2-6.2l-2-6l-2.8-5.7l-3.5-5.2l-4.2-4.7l-4.7-4.2l-5.2-3.5l-5.7-2.8l-1.4-0.5
	c-4.5-1.2-24.1-4.4-40.7,13.1c-6.9,7.3-9.9,14.1-12.3,19.2c-6.8,14.3-8.9,33.5-9.7,41.5c-2.9,30.9-1.8,52.5-2.5,61.8v357.4
	l96.4,29.3V857.5L832.5,851.2z M796,1173.9l-0.4,2.9l-1.1,2.7l-1.8,2.3l-2.3,1.8l-2.7,1.1l-2.9,0.4h-14.2l-2.9-0.4l-2.7-1.1
	l-2.3-1.8l-1.8-2.3l-1.1-2.7l-0.4-2.9l0.4-2.9l1.1-2.7l1.8-2.3l2.3-1.8l2.7-1.1l2.9-0.4h2.8V857.5l0.4-2.9l1.1-2.7l1.8-2.3l2.3-1.8
	l2.7-1.1l2.9-0.4l2.9,0.4l2.7,1.1l2.3,1.8l1.8,2.3l1.1,2.7l0.4,2.9V1173.9z"/>
</svg>
